# xmcd
#
# Track frame offsets: 
#        150
#        18137
#        34318
#        49646
#        63312
#        78740
#        94663
#        109984
#        129114
#        146351
#        162762
#        179459
#        194673
#        209730
#        228729
#        244705
#        262254
#        279511
#
# Disc length: 3939 seconds
#
# Revision: 1
# Processed by: cddbd v1.5.2PL0 Copyright (c) Steve Scherf et al.
# Submitted via: ExactAudioCopy v1.0b6
#
DISCID=080f6112
DTITLE=Various Artist - Country's Got Hits
DYEAR=2007
DGENRE=Country
TTITLE0=Alan Jackson - Where I Come From
TTITLE1=Tim McGraw - My Next Thirty Years
TTITLE2=Kenny Chesney - Don't Happen Twice
TTITLE3=Tracy Byrd - Ten Rounds with Jose Cuervo
TTITLE4=Chad Brock - Yes
TTITLE5=Steve Holy - Good Morning Beautiful
TTITLE6=Brad Paisley - Wrapped Around
TTITLE7=Jessica Andrews - Who I Am
TTITLE8=Diamond Rio - Beautiful Mess
TTITLE9=Brooks and Dunn - Ain't Nothing 'Bout You
TTITLE10=SheDaisy - I Will.... But
TTITLE11=Jo Dee Messina - That's the Way
TTITLE12=Mark Wills - 18 Somethin'
TTITLE13=Lonestar - I'm Already There
TTITLE14=Phil Vassar - In a Real Love
TTITLE15=Darryl Worley - Awful, Beautiful Life
TTITLE16=Blake Shelton - Austin
TTITLE17=Gary Allan - Nothing On but the Radio
EXTD=
EXTT0=
EXTT1=
EXTT2=
EXTT3=
EXTT4=
EXTT5=
EXTT6=
EXTT7=
EXTT8=
EXTT9=
EXTT10=
EXTT11=
EXTT12=
EXTT13=
EXTT14=
EXTT15=
EXTT16=
EXTT17=
PLAYORDER=
